Coordinates
nRows=7
nColumns=38

# SIMM Motion File Header:
name Coordinates
datacolumns 38
datarows 7
otherdata 1
range 1.38900000000000000000 1.39500000000000000000

Units are S.I. units (second, meters, Newtons, ...)
Angles are in degrees.

endheader
time	pelvis_tilt	pelvis_list	pelvis_rotation	pelvis_tx	pelvis_ty	pelvis_tz	hip_flexion_r	hip_adduction_r	hip_rotation_r	knee_angle_r	ankle_angle_r	subtalar_angle_r	mtp_angle_r	hip_flexion_l	hip_adduction_l	hip_rotation_l	knee_angle_l	ankle_angle_l	subtalar_angle_l	mtp_angle_l	lumbar_extension	lumbar_bending	lumbar_rotation	arm_flex_r	arm_add_r	arm_rot_r	elbow_flex_r	pro_sup_r	wrist_flex_r	wrist_dev_r	arm_flex_l	arm_add_l	arm_rot_l	elbow_flex_l	pro_sup_l	wrist_flex_l	wrist_dev_l
      1.38900000000000000000	     -0.08917331728832594800	     -6.13874556072681270000	     -1.63991663342754770000	      0.81204743545502556000	      0.95039161614976930000	     -0.31608520617619307000	     -0.71273111658627086000	     13.42632133107857900000	      3.50891149657597980000	    -36.48008626649181000000	     26.09241612776577300000	     -0.00000000000002496750	      0.00000000000003416267	     38.45568143043761500000	     -3.86405999025797750000	      4.86083598949084370000	   -108.28976984085774000000	     -9.00765751922276970000	     -0.00000000000001866183	     -0.00000000000001172695	    -14.74569572205454700000	      2.50279205134019730000	      3.75728475561334060000	    -14.29866960080664700000	    -29.62359373498519900000	    -13.26415950195034600000	    101.49135557192665000000	     71.05413395334611000000	     -0.00000000000000130643	     -0.00000000000000673987	    -19.80648144235733100000	    -17.68291633226538200000	     -4.34206536721547830000	     77.73267074462346200000	    108.64294180678066000000	      0.00000000000000649068	      0.00000000000000143394
      1.38999999999999990000	     -0.16570711176590849000	     -5.95418186781738970000	     -1.57171105745165090000	      0.81244175067242930000	      0.95071445518012609000	     -0.31620275120785291000	     -1.16397106957088710000	     13.19833301048484700000	      3.55038074980708140000	    -36.07701074358877200000	     25.81066347616477700000	     -0.00000000000002579503	      0.00000000000003499006	     38.84252212044656700000	     -3.59228448555911360000	      4.86754260317593790000	   -107.88248323936787000000	     -8.89129502480883720000	     -0.00000000000001885462	     -0.00000000000001176010	    -14.59055733342582100000	      2.30086407186263390000	      3.79431587471854530000	    -14.29861445417186300000	    -29.65009504130776800000	    -13.35364550694241000000	    101.66397128769579000000	     71.10931407143142700000	     -0.00000000000000130343	     -0.00000000000000664659	    -20.19128864791390000000	    -17.75820160670976800000	     -4.46334831409775660000	     77.97708076996154600000	    108.39986138192532000000	      0.00000000000000654056	      0.00000000000000141860
      1.39100000000000000000	     -0.24426444841901393000	     -5.76642301562691810000	     -1.50396514876109430000	      0.81284330852090336000	      0.95104081205856672000	     -0.31632200369037616000	     -1.61352332566112260000	     12.96636471038195800000	      3.58805478401526300000	    -35.66910171726446800000	     25.51246764675252600000	     -0.00000000000002663410	      0.00000000000003582008	     39.22506521222224100000	     -3.31900291992996270000	      4.86913412385297930000	   -107.46621233786517000000	     -8.77478173589015140000	     -0.00000000000001904383	     -0.00000000000001180444	    -14.43314366913848800000	      2.09503249354262390000	      3.83053646951092700000	    -14.30187717805759100000	    -29.67551106479921000000	    -13.44284689262957100000	    101.83757614775904000000	     71.16534814519556600000	     -0.00000000000000130128	     -0.00000000000000655659	    -20.57834181229000600000	    -17.83436478115269400000	     -4.58481873867841210000	     78.22598158658479400000	    108.15160708464471000000	      0.00000000000000658788	      0.00000000000000140533
      1.39199999999999990000	     -0.32457798075487282000	     -5.57550841819857630000	     -1.43673881825742660000	      0.81325199644969814000	      0.95137097281707894000	     -0.31644288115619629000	     -2.06156994625390370000	     12.73046872721762800000	      3.62182357918333640000	    -35.25653317327385100000	     25.19777892035016400000	     -0.00000000000002748765	      0.00000000000003664092	     39.60297180883718200000	     -3.04438838175898590000	      4.86560630319153110000	   -107.04098506148833000000	     -8.65804675978956160000	     -0.00000000000001921862	     -0.00000000000001184647	    -14.27380436521939600000	      1.88530064998370840000	      3.86595957137018950000	    -14.30823090553198500000	    -29.69989549792557800000	    -13.53149438270885000000	    102.01202389717626000000	     71.22210327830470100000	     -0.00000000000000129791	     -0.00000000000000645519	    -20.96752858277774600000	    -17.91125825448362700000	     -4.70661058502251080000	     78.47910665906940200000	    107.89884846127329000000	      0.00000000000000663625	      0.00000000000000139484
      1.39300000000000000000	     -0.40637684966090337000	     -5.38148491354622750000	     -1.37009276073794360000	      0.81366769081018508000	      0.95170522474608321000	     -0.31656529193527516000	     -2.50829019072363880000	     12.49070676256250900000	      3.65157502421186430000	    -34.83949435530978900000	     24.86656501003480500000	     -0.00000000000002832832	      0.00000000000003743059	     39.97590285148105900000	     -2.76861941776707440000	      4.85696450647492030000	   -106.60682973791475000000	     -8.54101874396877390000	     -0.00000000000001938238	     -0.00000000000001188659	    -14.11289280185005700000	      1.67168174510710510000	      3.90060032282576060000	    -14.31744910378481400000	    -29.72329942638544500000	    -13.61932570781524100000	    102.18716882005494000000	     71.27944707189348600000	     -0.00000000000000129427	     -0.00000000000000631628	    -21.35873613589616600000	    -17.98873150058246800000	     -4.82886129789505070000	     78.73619566220232000000	    107.64225438456708000000	      0.00000000000000667997	      0.00000000000000138293
      1.39399999999999990000	     -0.48938775998150880000	     -5.18440403454666670000	     -1.30408925804905530000	      0.81409025685559600000	      0.95204385509576606000	     -0.31668913391787995000	     -2.95385900801538660000	     12.24714676598746100000	      3.67719545848947240000	    -34.41819063998335100000	     24.51881266714027800000	     -0.00000000000002919346	      0.00000000000003825557	     40.34351956204221100000	     -2.49187759089358440000	      4.84322149110480820000	   -106.16377417862964000000	     -8.42362656035554910000	     -0.00000000000001954528	     -0.00000000000001192227	    -13.95076465252892600000	      1.45419575765902450000	      3.93447625835475230000	    -14.32930604082545000000	    -29.74577035723714900000	    -13.70608637683338300000	    102.36286553805897000000	     71.33724896643849400000	     -0.00000000000000128991	     -0.00000000000000617177	    -21.75185090715755000000	    -18.06663215357513200000	     -4.95171088350303370000	     78.99699444099579200000	    107.38249011797119000000	      0.00000000000000669219	      0.00000000000000137231
      1.39500000000000000000	     -0.57333584528726023000	     -4.98431831646224750000	     -1.23879298314596300000	      0.81451954900395451000	      0.95238715021740028000	     -0.31681429348928430000	     -3.39844574219941810000	     11.99985867305735000000	      3.69856993933182120000	    -33.99284446365605600000	     24.15452991201534200000	     -0.00000000000003007410	      0.00000000000003904710	     40.70548347895191200000	     -2.21434417632784440000	      4.82439454973714450000	   -105.71184440565611000000	     -8.30580003033968590000	     -0.00000000000001971110	     -0.00000000000001195077	    -13.78777664629303800000	      1.23286524991478650000	      3.96760741622921960000	    -14.34357716460073500000	    -29.76735098208223800000	    -13.79153039408284100000	    102.53896874400694000000	     71.39538172023822000000	     -0.00000000000000128567	     -0.00000000000000603784	    -22.14675835292886700000	    -18.14480734269908500000	     -5.07530099842187620000	     79.26125505476224500000	    107.12021428723807000000	      0.00000000000000668058	      0.00000000000000135890
